<svg width="513" height="513" viewBox="0 0 513 513" fill="none" xmlns="http://www.w3.org/2000/svg">
<g clip-path="url(#clip0_7285_6606)">
<path d="M411.998 0.169922H100.331C45.0101 0.169922 0.164062 45.016 0.164062 100.336V412.003C0.164062 467.324 45.0101 512.17 100.331 512.17H411.998C467.318 512.17 512.164 467.324 512.164 412.003V100.336C512.164 45.016 467.318 0.169922 411.998 0.169922Z" fill="black"/>
<path d="M377.57 267.918L369.191 260.866V258.54C369.191 198.78 322.015 149.159 262.598 147.429H260.913L272.096 134.815C287.9 116.998 286.245 91.6056 272.379 72.2373C260.734 55.9703 225.859 38.6596 190.149 52.7795C170.617 60.4881 153.217 76.6209 133.715 109.811C118.864 135.069 88.2832 120.591 88.2832 120.591C88.2832 120.591 87.2097 142.017 101.822 156.465C120.608 175.043 162.118 193.278 214.17 135.188C222.549 125.839 233.97 125.914 243.647 135.188L255.143 147.489C196.456 149.71 149.564 197.93 149.564 257.168V260.881L141.184 267.933C129.883 277.461 123.367 291.491 123.367 306.267C123.367 321.043 130.464 336.266 142.631 345.764L149.579 351.177V393.015L210.964 442.978C239.174 465.925 279.61 465.925 307.806 442.978L369.206 393.015V351.192L376.139 345.764C388.32 336.266 395.418 321.684 395.418 306.267C395.418 290.85 388.887 277.461 377.6 267.933L377.57 267.918ZM347.019 352.086L293.194 395.683C273.467 411.652 245.257 411.652 225.546 395.683L171.721 352.086C157.705 340.74 149.564 323.652 149.564 305.611C149.564 296.591 151.607 287.808 155.394 279.876C159.181 271.929 164.728 264.832 171.735 259.151L225.561 215.554C245.287 199.6 273.482 199.6 293.194 215.554L347.034 259.151C361.05 270.498 369.191 287.585 369.191 305.611C369.191 323.638 361.05 340.725 347.034 352.086H347.019Z" fill="#FE6622"/>
<path d="M185.795 272.228C178.564 272.228 172.689 278.102 172.689 285.334V325.904C172.689 333.136 178.564 339.01 185.795 339.01C193.027 339.01 198.902 333.136 198.902 325.904V285.334C198.902 278.102 193.027 272.228 185.795 272.228Z" fill="#FE6622"/>
<path d="M234.522 237.129C227.291 237.129 221.416 243.004 221.416 250.235V360.988C221.416 368.219 227.291 374.094 234.522 374.094C241.753 374.094 247.628 368.219 247.628 360.988V250.235C247.628 243.004 241.753 237.129 234.522 237.129Z" fill="#FE6622"/>
<path d="M346.034 285.334C346.034 278.095 340.167 272.228 332.928 272.228C325.69 272.228 319.822 278.095 319.822 285.334V325.904C319.822 333.142 325.69 339.01 332.928 339.01C340.167 339.01 346.034 333.142 346.034 325.904V285.334Z" fill="#FE6622"/>
<path d="M297.323 250.235C297.323 242.997 291.456 237.129 284.217 237.129C276.979 237.129 271.111 242.997 271.111 250.235V360.988C271.111 368.226 276.979 374.094 284.217 374.094C291.456 374.094 297.323 368.226 297.323 360.988V250.235Z" fill="#FE6622"/>
</g>
<defs>
<clipPath id="clip0_7285_6606">
<rect width="512.582" height="512.582" fill="white" transform="translate(0.164062 0.169922)"/>
</clipPath>
</defs>
</svg>
