<svg width="880" height="282" viewBox="0 0 880 282" fill="none" xmlns="http://www.w3.org/2000/svg">
<g clip-path="url(#clip0_7285_6550)">
<path d="M306.99 214.47C306.89 214.25 306.71 213.66 306.71 212.19V81.6299H260.91V83.6099L274.52 93.4099C275.51 94.1599 275.89 94.7099 276.03 95.0299C276.16 95.3099 276.37 96.0399 276.37 97.7099V212.19C276.37 213.66 276.16 214.32 276.04 214.58C275.89 214.89 275.51 215.41 274.54 216.15L260.9 225.97V228.07H322.28V225.97L308.68 216.18C307.39 215.16 307.06 214.65 306.98 214.47H306.99Z" fill="white"/>
<path d="M431.221 208.17H428.961L428.711 208.93C427.691 212.01 425.921 213.45 423.131 213.45C421.481 213.45 420.201 212.96 419.221 211.95C417.381 210.04 416.581 206.26 416.841 200.69L418.151 165.61V161.62C418.151 144.8 414.531 132.57 407.351 125.25C400.781 119.04 390.001 115.89 375.321 115.89C360.641 115.89 347.501 118.53 334.071 123.73L333.031 124.13L345.591 155.83H347.481L363.371 124.15C364.091 122.65 364.621 122.29 364.811 122.22C365.061 122.12 365.981 121.88 369.121 121.88C375.611 121.88 380.341 124.14 383.561 128.78C386.831 133.49 388.481 140.01 388.481 148.15L388.081 170.53C382.251 166.82 374.741 164.94 365.741 164.94C359.371 164.94 353.301 166.17 347.701 168.59C342.051 171.03 337.281 174.93 333.511 180.17C329.721 185.44 327.801 191.75 327.801 198.92C327.801 208.4 330.831 215.99 336.811 221.5C342.771 226.99 350.121 229.77 358.651 229.77C365.981 229.77 372.531 227.66 378.111 223.51C382.441 220.29 385.811 216.12 388.191 211.06C388.961 216.27 390.941 220.48 394.081 223.62C398.161 227.7 403.361 229.77 409.521 229.77C414.301 229.77 418.481 228.6 421.961 226.3C425.421 224 428.031 220.96 429.711 217.26C431.021 214.37 431.561 211.64 431.331 209.16L431.241 208.16L431.221 208.17ZM387.591 203.88C385.681 206.83 383.351 209.19 380.641 210.87C377.891 212.58 375.001 213.45 372.031 213.45C367.831 213.45 364.481 211.9 361.771 208.72C359.051 205.53 357.681 201.11 357.681 195.58C357.681 189.27 359.531 183.95 363.181 179.75C366.841 175.55 371.771 173.5 378.241 173.5C381.661 173.5 384.941 174.01 388.011 175.01L387.591 203.87V203.88Z" fill="white"/>
<path d="M547.641 214.5C547.521 214.26 547.321 213.65 547.321 212.2C547.611 188.68 547.761 171.81 547.761 162.06C547.761 131.43 536.431 115.9 514.081 115.9C498.311 115.9 487.211 123.2 480.991 137.62V117.62H435.301V119.78L448.911 131.14C449.941 131.93 450.271 132.42 450.371 132.65C450.461 132.85 450.661 133.5 450.661 135.33V212.19C450.661 213.61 450.501 214.3 450.361 214.63C450.261 214.87 449.941 215.39 448.941 216.15L435.301 225.97V228.07H496.681V225.97L483.081 216.18C481.821 215.19 481.431 214.63 481.311 214.39C481.191 214.16 480.991 213.56 480.991 212.19V145.98C486.101 137.45 492.401 133.31 500.241 133.31C506.431 133.31 510.721 135.98 513.341 141.46C516.051 147.14 517.431 156.14 517.431 168.21C517.431 171.99 517.321 180.33 517.101 192.99C516.771 212.08 516.771 212.33 516.771 212.41C516.771 213.84 516.031 215.07 514.481 216.17L501.521 225.99V228.07H562.901V225.97L549.291 216.18C548.131 215.28 547.761 214.75 547.641 214.51V214.5Z" fill="white"/>
<path d="M657.6 190.06C651.06 204.35 641.66 211.3 628.88 211.3C620.21 211.3 612.98 207.6 607.38 200.31C601.71 192.92 598.84 181.18 598.84 165.4C598.84 151.15 601.06 140.13 605.44 132.64C609.77 125.25 615.97 121.66 624.41 121.66H626.7C627.9 121.66 628.41 121.9 628.6 122.04C628.88 122.24 629.34 122.73 629.92 123.79L645.13 159.17H647.1L659.8 122.47L658.76 122.1C647.07 117.98 635.22 115.89 623.53 115.89C617.81 115.89 612.26 116.52 607.04 117.75C601.8 118.99 596.65 121.1 591.75 124.02C586.84 126.95 582.52 130.64 578.94 134.99C575.35 139.35 572.44 144.93 570.3 151.58C568.17 158.2 567.09 165.71 567.09 173.91C567.09 183.13 568.47 191.49 571.19 198.76C573.92 206.07 577.7 212.02 582.41 216.43C587.11 220.82 592.39 224.18 598.13 226.41C603.86 228.64 610.03 229.77 616.46 229.77C628.68 229.77 638.6 226.24 645.93 219.28C653.22 212.36 658.01 202.74 660.14 190.7L660.37 189.41H657.89L657.59 190.06H657.6Z" fill="white"/>
<path d="M764.989 188.14C758.149 203.87 747.149 211.51 731.379 211.51C722.339 211.51 714.849 207.88 709.109 200.72C703.309 193.48 700.369 182.83 700.369 169.07V166.72H767.229L767.349 165.75C767.639 163.41 767.789 161.48 767.789 160.01C767.789 152.34 766.479 145.5 763.879 139.68C761.269 133.82 757.669 129.14 753.179 125.77C748.739 122.44 743.799 119.93 738.509 118.32C733.229 116.71 727.529 115.9 721.569 115.9C716.339 115.9 711.229 116.55 706.359 117.82C701.469 119.1 696.709 121.24 692.199 124.16C687.679 127.09 683.709 130.77 680.379 135.09C677.039 139.42 674.349 144.96 672.349 151.56C670.369 158.14 669.359 165.59 669.359 173.7C669.359 182.99 670.779 191.39 673.569 198.67C676.379 205.99 680.249 211.95 685.069 216.39C689.879 220.82 695.329 224.19 701.279 226.42C707.229 228.65 713.679 229.78 720.459 229.78C733.089 229.78 743.559 226.32 751.579 219.49C759.579 212.67 764.949 202.34 767.519 188.78L767.769 187.47H765.259L764.969 188.14H764.989ZM721.139 121.66C726.899 121.66 731.079 124.42 733.919 130.1C736.839 135.96 738.319 145.15 738.319 157.42C738.319 158.58 738.279 159.62 738.209 160.52H700.399C700.979 147.8 703.059 138.03 706.599 131.47C710.159 124.86 714.919 121.65 721.139 121.65V121.66Z" fill="white"/>
<path d="M841.37 117.62V119.58L854.93 140.74C855.94 142.41 856.12 143.19 856.13 143.51C856.15 143.85 856.06 144.74 855.28 146.88L835.1 197.57L811.39 134.94C810.79 133.31 810.78 132.64 810.8 132.42C810.83 132.19 810.99 131.68 811.83 130.77L821.92 119.68V117.61H769.58V119.58L775.29 128.34C777.21 131.51 778.54 134 779.24 135.72L819.16 236.63C813.92 248.56 809.3 257.2 805.4 262.32C804.25 263.94 803.7 264.01 803.7 264.01C803.17 264.01 802.43 263.4 801.64 262.29L784.31 239.98H782.43L774.09 277.52L774.92 277.89C778.32 279.38 781.84 280.14 785.39 280.14C791.1 280.14 796.18 278.74 800.48 275.97C804.73 273.24 808.88 268.77 812.79 262.7C818.68 253.56 823.77 243.66 827.92 233.29L861.36 148.35C862.63 145.2 864.25 142.15 866.15 139.29L879.74 119.6V117.62H841.35H841.37Z" fill="white"/>
<path d="M196.72 150.44L191.02 145.64V144.06C191.02 103.43 158.94 69.6897 118.54 68.5097H117.39L124.99 59.9297C135.73 47.8097 134.61 30.5497 125.18 17.3797C117.26 6.31968 93.55 -5.45032 69.27 4.14968C55.99 9.38968 44.16 20.3597 30.89 42.9297C20.81 60.0997 0.0100203 50.2597 0.0100203 50.2597C0.0100203 50.2597 -0.719979 64.8297 9.22002 74.6497C22 87.2797 50.22 99.6797 85.61 60.1897C91.3 53.8397 99.07 53.8797 105.66 60.1897L113.47 68.5497C73.57 70.0597 41.68 102.85 41.68 143.12V145.64L35.98 150.44C28.3 156.92 23.86 166.46 23.86 176.51C23.86 186.56 28.69 196.91 36.96 203.37L41.68 207.05V235.5L83.42 269.47C102.6 285.07 130.1 285.07 149.27 269.47L191.02 235.5V207.06L195.73 203.37C204.01 196.91 208.84 187 208.84 176.51C208.84 166.02 204.4 156.92 196.72 150.44ZM175.95 207.67L139.35 237.31C125.94 248.17 106.76 248.17 93.35 237.31L56.75 207.67C47.22 199.95 41.68 188.34 41.68 176.07C41.68 169.94 43.07 163.97 45.64 158.57C48.22 153.17 51.99 148.34 56.75 144.48L93.35 114.84C106.76 103.99 125.93 103.99 139.34 114.84L175.95 144.48C185.48 152.2 191.02 163.81 191.02 176.07C191.02 188.33 185.48 199.95 175.95 207.67Z" fill="white"/>
<path d="M66.3299 153.38C61.4099 153.38 57.4199 157.37 57.4199 162.29V189.87C57.4199 194.79 61.4099 198.78 66.3299 198.78C71.2499 198.78 75.2399 194.79 75.2399 189.87V162.29C75.2399 157.37 71.2499 153.38 66.3299 153.38Z" fill="white"/>
<path d="M99.4491 129.51C94.5291 129.51 90.5391 133.5 90.5391 138.42V213.73C90.5391 218.65 94.5291 222.64 99.4491 222.64C104.369 222.64 108.359 218.65 108.359 213.73V138.42C108.359 133.5 104.369 129.51 99.4491 129.51Z" fill="white"/>
<path d="M175.281 162.29C175.281 157.369 171.292 153.38 166.371 153.38C161.45 153.38 157.461 157.369 157.461 162.29V189.88C157.461 194.801 161.45 198.79 166.371 198.79C171.292 198.79 175.281 194.801 175.281 189.88V162.29Z" fill="white"/>
<path d="M142.15 138.42C142.15 133.499 138.161 129.51 133.24 129.51C128.319 129.51 124.33 133.499 124.33 138.42V213.73C124.33 218.651 128.319 222.64 133.24 222.64C138.161 222.64 142.15 218.651 142.15 213.73V138.42Z" fill="white"/>
</g>
<defs>
<clipPath id="clip0_7285_6550">
<rect width="879.76" height="280.56" fill="white" transform="translate(0 0.609863)"/>
</clipPath>
</defs>
</svg>
