<svg width="275" height="73" viewBox="0 0 275 73" fill="none" xmlns="http://www.w3.org/2000/svg">
<g clip-path="url(#clip0_433_1358)">
<path d="M91.2624 54.5776V18.396L87.0576 17.2032V14.1928L97.0224 13L98.3472 13.568V54.5208L103.358 55.2024V58.0992H87V55.2024L91.2624 54.5776ZM120.851 26.4048C124.576 26.4048 127.456 27.2189 129.491 28.8472C131.526 30.4755 132.544 33.2019 132.544 37.0264V55.2024H136.115V57.4744C135.424 57.8909 134.521 58.2128 133.408 58.44C132.294 58.7051 131.2 58.8376 130.124 58.8376C128.742 58.8376 127.744 58.5725 127.129 58.0424C126.515 57.4744 126.188 56.5656 126.15 55.316C124.038 57.6637 121.062 58.8376 117.222 58.8376C115.264 58.8376 113.516 58.4779 111.98 57.7584C110.444 57.0011 109.254 55.9597 108.409 54.6344C107.564 53.3091 107.142 51.8133 107.142 50.1472C107.142 47.648 108.083 45.5843 109.964 43.956C111.846 42.3277 114.188 41.1539 116.992 40.4344C119.795 39.6771 122.617 39.2984 125.459 39.2984V37.5944C125.459 35.0195 124.864 33.2208 123.673 32.1984C122.483 31.176 120.716 30.6648 118.374 30.6648C117.107 30.6648 115.667 30.8731 114.054 31.2896C112.441 31.7061 111.04 32.2363 109.849 32.88L108.524 29.756C109.83 28.6957 111.692 27.8816 114.112 27.3136C116.569 26.7077 118.816 26.4048 120.851 26.4048ZM125.459 42.7064C122.579 42.7064 119.987 43.2176 117.683 44.24C115.417 45.2624 114.284 46.8907 114.284 49.1248C114.284 52.7979 116.262 54.6344 120.217 54.6344C121.139 54.6344 122.08 54.4451 123.04 54.0664C124.038 53.6877 124.825 53.2333 125.401 52.7032L125.459 42.7064ZM144.481 54.6344V33.6184L140.564 31.2896V28.904L149.147 26.4048L150.702 26.916V30.9488C152.161 29.6613 154.004 28.5821 156.232 27.7112C158.497 26.8403 160.609 26.4048 162.568 26.4048C165.87 26.4048 168.174 27.4272 169.48 29.472C170.824 31.5168 171.496 34.7733 171.496 39.2416V54.6344L175.758 55.2024V58.0992H160.206V55.2024L164.411 54.5776V40.3208C164.411 38.0867 164.257 36.3448 163.95 35.0952C163.643 33.8077 163.067 32.8611 162.222 32.2552C161.377 31.6493 160.148 31.3464 158.536 31.3464C157.537 31.3464 156.385 31.5357 155.08 31.9144C153.812 32.2931 152.66 32.8611 151.624 33.6184V54.5776L155.54 55.2024V58.0992H140.795V55.2024L144.481 54.6344ZM196.398 26.2344C197.972 26.1587 199.585 26.2533 201.236 26.5184C202.926 26.7835 204.174 27.1432 204.98 27.5976V35.0952H201.409L199.681 30.9488C198.721 30.2293 197.3 29.8696 195.419 29.8696C192.923 29.8696 190.888 30.892 189.313 32.9368C187.777 34.9816 187.009 37.7459 187.009 41.2296C187.009 44.0317 187.451 46.4173 188.334 48.3864C189.256 50.3555 190.465 51.8323 191.963 52.8168C193.46 53.8013 195.092 54.2936 196.859 54.2936C198.318 54.2936 199.816 54.1421 201.352 53.8392C202.888 53.4984 204.04 53.0819 204.808 52.5896L206.017 55.3728C204.788 56.4331 203.118 57.2661 201.006 57.872C198.932 58.44 196.686 58.724 194.267 58.724C191.31 58.724 188.756 58.0613 186.606 56.736C184.456 55.4107 182.804 53.5741 181.652 51.2264C180.539 48.8408 179.982 46.1333 179.982 43.104C179.982 39.7717 180.692 36.856 182.113 34.3568C183.534 31.8197 185.473 29.8507 187.931 28.4496C190.427 27.0485 193.249 26.3101 196.398 26.2344ZM226.372 26.1208C230.058 26.1208 232.919 27.2 234.954 29.3584C237.028 31.5168 238.064 34.5461 238.064 38.4464C238.064 40.1125 237.93 41.684 237.661 43.1608H217.328C217.405 46.6824 218.308 49.4277 220.036 51.3968C221.802 53.3659 224.298 54.3504 227.524 54.3504C228.944 54.3504 230.461 54.1989 232.074 53.896C233.687 53.5552 234.992 53.1387 235.991 52.6464L237.2 55.3728C235.972 56.4331 234.186 57.2851 231.844 57.9288C229.501 58.5347 227.178 58.8376 224.874 58.8376C220.189 58.7997 216.56 57.3608 213.988 54.5208C211.415 51.6808 210.128 47.8184 210.128 42.9336C210.128 39.7149 210.82 36.8371 212.202 34.3C213.584 31.7251 215.504 29.7181 217.962 28.2792C220.42 26.8403 223.223 26.1208 226.372 26.1208ZM225.047 29.472C222.935 29.472 221.188 30.324 219.805 32.028C218.461 33.732 217.655 36.1933 217.386 39.412H230.864C230.903 38.9955 230.922 38.3707 230.922 37.5376C230.922 34.7355 230.308 32.7664 229.079 31.6304C228.311 30.1915 226.967 29.472 225.047 29.472ZM244.873 66.676C245.795 66.9411 246.774 67.0547 247.811 67.0168C249.5 67.0168 251.075 66.3163 252.534 64.9152C253.993 63.5141 255.184 61.2232 256.105 58.0424H254.723L243.548 31.3464L240.784 30.7216V27.0864H255.068V30.7216L251.324 31.3464L257.488 48.6136L258.87 53.1576L260.252 48.5568L265.494 31.2896L261.289 30.7216V27.0864H274.192V30.7216L271.254 31.2328C269.18 37.1779 267.107 42.8768 265.033 48.3296C262.96 53.7824 261.539 57.4555 260.771 59.3488C259.388 62.7568 258.044 65.4075 256.739 67.3008C255.433 69.1941 253.916 70.5005 252.188 71.22C250.998 72.1667 249.577 72.64 247.926 72.64C247.35 72.64 246.736 72.6021 246.083 72.5264C245.468 72.4507 245.065 72.356 244.873 72.2424V66.676Z" fill="#F57D5A"/>
<rect width="70.8" height="70.8" rx="9.6" fill="#F57D5A"/>
<path d="M10.0673 51.276C10.1082 51.4631 10.2184 51.6283 10.3761 51.7388C10.4804 51.8115 11.3057 52.3553 13.063 52.8456C15.936 65.1425 24.1519 65.7361 33.8402 65.7361C34.349 65.7361 34.8625 65.7345 35.379 65.7322L36.9656 65.7292C38.5554 65.7292 40.1644 65.5754 41.7472 65.2702C41.8484 65.2508 41.9446 65.2116 42.0302 65.1549C42.1158 65.0981 42.1891 65.0249 42.2457 64.9397C42.3023 64.8544 42.3412 64.7588 42.3599 64.6585C42.3787 64.5581 42.377 64.4551 42.3549 64.3554C42.1025 63.2252 41.9739 62.0715 41.9712 60.914C41.9712 58.3469 42.6004 55.8158 43.7817 53.5516C44.2152 53.6463 44.6574 53.6963 45.1012 53.7008C48.6382 53.7008 51.5158 50.8499 51.5158 47.3459C51.5158 46.9978 51.4795 46.6582 51.4255 46.3255C53.5399 45.3604 55.841 44.8627 58.169 44.8667C58.9867 44.8667 59.8499 44.9432 60.8096 45.0993C60.9112 45.116 61.0151 45.1124 61.1153 45.0886C61.2155 45.0649 61.3099 45.0215 61.3928 44.961C61.4758 44.9006 61.5457 44.8243 61.5984 44.7366C61.6512 44.6489 61.6856 44.5517 61.6998 44.4506C61.8658 43.2811 61.95 42.1115 61.95 40.9764C61.95 18.0762 37.5818 4.6511 37.3355 4.518C37.2177 4.45462 37.0854 4.42264 36.9514 4.42519C36.8174 4.42774 36.6863 4.46473 36.5711 4.53253C35.9071 4.92494 20.6651 14.0619 14.7555 29.3917C14.2648 28.7224 13.8258 28.0174 13.4421 27.2828C13.3827 27.1669 13.2944 27.068 13.1856 26.9954C13.0768 26.9228 12.9511 26.8788 12.8204 26.8677C12.6897 26.8566 12.5583 26.8787 12.4387 26.9319C12.319 26.9851 12.215 27.0677 12.1365 27.1719C11.9041 27.4794 6.49325 34.8585 10.0673 51.276ZM40.427 60.9155C40.427 61.9007 40.5158 62.9028 40.691 63.9033C39.4589 64.1001 38.2129 64.1993 36.9649 64.2001L35.3728 64.2032C25.5046 64.2414 17.6508 64.2567 14.7462 53.2319C16.0981 53.4782 17.7968 53.6549 19.8907 53.6549C24.3959 53.6541 30.731 52.8326 39.3499 50.1302C39.3592 50.1539 39.3576 50.1784 39.37 50.2013C40.0027 51.4479 41.0337 52.4523 42.3024 53.0583C41.0706 55.4978 40.4285 58.1878 40.427 60.9155ZM45.1012 52.1725C44.2263 52.1739 43.3672 51.9404 42.6155 51.4969C41.8637 51.0534 41.2472 50.4164 40.8315 49.6536C42.3553 49.1529 43.8692 48.623 45.3723 48.0641C45.5225 48.0085 45.6516 47.9078 45.7415 47.7761C45.8314 47.6445 45.8776 47.4883 45.8738 47.3294C45.87 47.1705 45.8163 47.0167 45.7202 46.8894C45.6241 46.7621 45.4903 46.6677 45.3375 46.6192L40.7729 45.162C41.1771 44.3684 41.7958 43.7015 42.56 43.2356C43.3242 42.7696 44.2039 42.523 45.1012 42.523C47.7866 42.523 49.9716 44.687 49.9716 47.3481C49.9716 50.0093 47.7866 52.1725 45.1012 52.1725ZM36.9811 6.08303C40.0579 7.88135 60.4042 20.553 60.4042 40.9779C60.4042 41.7956 60.3571 42.6332 60.2653 43.4769C59.5699 43.387 58.8695 43.3407 58.1682 43.3384C55.6651 43.3384 53.2561 43.8486 50.9939 44.8423C50.0102 42.5812 47.7403 40.9932 45.1012 40.9932C43.877 40.9927 42.6783 41.3407 41.648 41.9959C40.6177 42.651 39.7991 43.5856 39.2897 44.6885L38.7878 44.5279C38.455 44.4162 23.1744 39.2224 15.8796 30.806C20.8674 16.7911 34.5266 7.63658 36.9811 6.08303ZM12.7442 29.1737C19.1865 39.5314 37.4961 45.7127 38.3006 45.9805L38.3091 45.9835L42.7255 47.3933C21.5021 54.8627 12.982 51.3854 11.5057 50.6251C8.96087 38.6021 11.481 31.6788 12.7442 29.1737Z" fill="white"/>
<path d="M13.7547 48.7642L13.8157 48.7619C13.9168 48.754 14.0153 48.7266 14.1057 48.681C14.1961 48.6354 14.2765 48.5727 14.3424 48.4963C14.4083 48.42 14.4583 48.3315 14.4897 48.236C14.5211 48.1404 14.5332 48.0397 14.5252 47.9396C13.9315 40.4258 14.5175 34.6667 14.5237 34.6101C14.5449 34.4082 14.4843 34.2063 14.3552 34.0487C14.2261 33.8911 14.0391 33.7908 13.8354 33.7698C13.6316 33.7488 13.4278 33.8089 13.2687 33.9368C13.1097 34.0647 13.0084 34.2499 12.9872 34.4518C12.9811 34.5107 12.3796 40.3975 12.9857 48.0589C13.0008 48.2507 13.0884 48.4299 13.2309 48.5606C13.3735 48.6913 13.5605 48.764 13.7547 48.7642ZM17.3527 50.0852C17.4601 50.0852 17.5663 50.063 17.6645 50.0201C17.7628 49.9771 17.8509 49.9143 17.9233 49.8357C17.9957 49.7571 18.0507 49.6644 18.0849 49.5635C18.119 49.4627 18.1316 49.3558 18.1217 49.2499C17.531 42.9202 18.1132 38.0691 18.1194 38.0201C18.1317 37.9204 18.1241 37.8193 18.0969 37.7225C18.0698 37.6257 18.0237 37.5352 17.9613 37.4561C17.8988 37.3769 17.8212 37.3108 17.733 37.2613C17.6447 37.2119 17.5475 37.1802 17.4469 37.168C17.3462 37.1558 17.2442 37.1633 17.1465 37.1902C17.0488 37.2171 16.9574 37.2628 16.8775 37.3246C16.7977 37.3865 16.7309 37.4633 16.681 37.5508C16.6311 37.6382 16.5991 37.7345 16.5867 37.8342C16.5613 38.0377 15.9768 42.8865 16.5844 49.3899C16.602 49.5798 16.6904 49.7564 16.8326 49.885C16.9747 50.0136 17.1602 50.085 17.3527 50.0852ZM20.7962 50.0852L20.8387 50.0844C20.94 50.079 21.0392 50.0539 21.1308 50.0105C21.2223 49.9671 21.3042 49.9063 21.372 49.8315C21.4398 49.7567 21.492 49.6694 21.5257 49.5746C21.5594 49.4798 21.5738 49.3793 21.5683 49.279C21.3043 44.4378 21.5645 40.8618 21.5668 40.8266C21.5771 40.627 21.5082 40.4313 21.3748 40.2814C21.2414 40.1315 21.054 40.0393 20.8529 40.0245C20.6517 40.0097 20.4526 40.0735 20.2983 40.2022C20.144 40.331 20.0467 40.5145 20.0272 40.7134C20.0156 40.8618 19.7562 44.4156 20.0264 49.3623C20.0373 49.5574 20.1231 49.741 20.2662 49.8754C20.4094 50.0098 20.599 50.0849 20.7962 50.0852ZM24.7563 50.0852C24.8629 50.0853 24.9683 50.0636 25.0659 50.0213C25.1636 49.9791 25.2513 49.9174 25.3237 49.8399C25.3961 49.7625 25.4515 49.671 25.4865 49.5713C25.5214 49.4716 25.5352 49.3658 25.5269 49.2606C25.2698 46.0181 25.5222 43.5015 25.5253 43.4763C25.5357 43.3763 25.5261 43.2753 25.497 43.1791C25.468 43.0828 25.4201 42.9931 25.3561 42.9152C25.292 42.8373 25.2131 42.7726 25.1239 42.7249C25.0346 42.6772 24.9367 42.6474 24.8358 42.6372C24.7349 42.6265 24.6329 42.6357 24.5356 42.6642C24.4383 42.6928 24.3477 42.7402 24.2689 42.8036C24.1902 42.867 24.1249 42.9453 24.0769 43.0338C24.0288 43.1223 23.9989 43.2194 23.9889 43.3195C23.9773 43.4273 23.7178 45.9906 23.9873 49.3799C24.0025 49.5718 24.09 49.7509 24.2326 49.8816C24.3751 50.0123 24.5621 50.085 24.7563 50.0852ZM28.6268 49.7004C28.7353 49.7005 28.8425 49.678 28.9415 49.6343C29.0405 49.5906 29.1292 49.5267 29.2016 49.4468C29.2741 49.367 29.3288 49.2729 29.3621 49.1707C29.3955 49.0685 29.4067 48.9605 29.3951 48.8537C29.1434 46.5268 29.3897 44.7208 29.392 44.7024C29.4061 44.6029 29.4002 44.5017 29.3747 44.4044C29.3493 44.3072 29.3047 44.2158 29.2437 44.1356C29.1826 44.0555 29.1061 43.988 29.0187 43.937C28.9313 43.8861 28.8346 43.8527 28.7342 43.8388C28.5319 43.813 28.3275 43.8666 28.1647 43.9883C28.0019 44.11 27.8937 44.29 27.8632 44.4898C27.8517 44.5701 27.5868 46.4908 27.8602 49.0166C27.8803 49.2042 27.9698 49.3778 28.1113 49.504C28.2528 49.6302 28.4364 49.7002 28.6268 49.7004ZM32.861 49.1007C32.9763 49.1009 33.0901 49.0755 33.1941 49.0264C33.2982 48.9773 33.3898 48.9057 33.4623 48.8169C33.5348 48.7282 33.5863 48.6245 33.613 48.5134C33.6398 48.4024 33.6411 48.2868 33.6169 48.1752C33.4007 47.1762 33.5999 46.3967 33.6061 46.37C33.6603 46.175 33.6344 45.9668 33.5342 45.7907C33.4339 45.6145 33.2674 45.4848 33.071 45.4299C32.874 45.3755 32.6631 45.4006 32.4847 45.4998C32.3063 45.599 32.1748 45.7642 32.119 45.9592C32.1059 46.0051 31.804 47.0959 32.1075 48.4957C32.1847 48.8552 32.5051 49.1007 32.861 49.1007ZM20.411 31.0762C20.603 31.146 20.8153 31.1375 21.001 31.0525C21.1867 30.9674 21.3308 30.8128 21.4016 30.6226C21.4247 30.5598 23.8028 24.276 29.6923 18.0702C29.765 17.9977 29.8223 17.9114 29.8607 17.8166C29.8992 17.7218 29.9181 17.6203 29.9163 17.5181C29.9145 17.4159 29.892 17.3151 29.8503 17.2216C29.8085 17.1282 29.7482 17.0439 29.673 16.974C29.5978 16.904 29.5093 16.8496 29.4125 16.8141C29.3158 16.7786 29.2128 16.7627 29.1097 16.7673C29.0067 16.7718 28.9056 16.7968 28.8124 16.8408C28.7193 16.8847 28.636 16.9467 28.5674 17.0231C22.4493 23.469 20.0512 29.8278 19.9516 30.0955C19.8816 30.2859 19.8906 30.4961 19.9767 30.6799C20.0628 30.8637 20.219 31.0062 20.411 31.0762ZM31.8334 15.3464C32.0187 15.3464 32.204 15.2806 32.3522 15.1475C32.3738 15.1284 34.5187 13.2031 36.6335 11.6594C36.7984 11.5391 36.9084 11.3589 36.9392 11.1582C36.9699 10.9576 36.919 10.7531 36.7976 10.5897C36.6761 10.4263 36.4942 10.3174 36.2917 10.2869C36.0892 10.2564 35.8827 10.3069 35.7178 10.4272C33.5389 12.0167 31.4033 13.9343 31.313 14.0146C31.1973 14.1185 31.1161 14.2546 31.0801 14.4051C31.0441 14.5556 31.0551 14.7134 31.1114 14.8576C31.1678 15.0018 31.2669 15.1257 31.3958 15.213C31.5247 15.3002 31.6773 15.3467 31.8334 15.3464Z" fill="white"/>
</g>
<defs>
<clipPath id="clip0_433_1358">
<rect width="275" height="73" fill="white"/>
</clipPath>
</defs>
</svg>
