<svg width="881" height="282" viewBox="0 0 881 282" fill="none" xmlns="http://www.w3.org/2000/svg">
<g clip-path="url(#clip0_7285_6563)">
<path d="M307.75 214.47C307.65 214.25 307.47 213.66 307.47 212.19V81.6299H261.67V83.6099L275.28 93.4099C276.27 94.1599 276.65 94.7099 276.79 95.0299C276.92 95.3099 277.13 96.0399 277.13 97.7099V212.19C277.13 213.66 276.92 214.32 276.8 214.58C276.65 214.89 276.27 215.41 275.3 216.15L261.66 225.97V228.07H323.04V225.97L309.44 216.18C308.15 215.16 307.82 214.65 307.74 214.47H307.75Z" fill="#FE6622"/>
<path d="M431.981 208.17H429.721L429.471 208.93C428.451 212.01 426.681 213.45 423.891 213.45C422.241 213.45 420.961 212.96 419.981 211.95C418.141 210.04 417.341 206.26 417.601 200.69L418.911 165.61V161.62C418.911 144.8 415.291 132.57 408.111 125.25C401.541 119.04 390.761 115.89 376.081 115.89C361.401 115.89 348.261 118.53 334.831 123.73L333.791 124.13L346.351 155.83H348.241L364.131 124.15C364.851 122.65 365.381 122.29 365.571 122.22C365.821 122.12 366.741 121.88 369.881 121.88C376.371 121.88 381.101 124.14 384.321 128.78C387.591 133.49 389.241 140.01 389.241 148.15L388.841 170.53C383.011 166.82 375.501 164.94 366.501 164.94C360.131 164.94 354.061 166.17 348.461 168.59C342.811 171.03 338.041 174.93 334.271 180.17C330.481 185.44 328.561 191.75 328.561 198.92C328.561 208.4 331.591 215.99 337.571 221.5C343.531 226.99 350.881 229.77 359.411 229.77C366.741 229.77 373.291 227.66 378.871 223.51C383.201 220.29 386.571 216.12 388.951 211.06C389.721 216.27 391.701 220.48 394.841 223.62C398.921 227.7 404.121 229.77 410.281 229.77C415.061 229.77 419.241 228.6 422.721 226.3C426.181 224 428.791 220.96 430.471 217.26C431.781 214.37 432.321 211.64 432.091 209.16L432.001 208.16L431.981 208.17ZM388.351 203.88C386.441 206.83 384.111 209.19 381.401 210.87C378.651 212.58 375.761 213.45 372.791 213.45C368.591 213.45 365.241 211.9 362.531 208.72C359.811 205.53 358.441 201.11 358.441 195.58C358.441 189.27 360.291 183.95 363.941 179.75C367.601 175.55 372.531 173.5 379.001 173.5C382.421 173.5 385.701 174.01 388.771 175.01L388.351 203.87V203.88Z" fill="#FE6622"/>
<path d="M548.401 214.5C548.281 214.26 548.081 213.65 548.081 212.2C548.371 188.68 548.521 171.81 548.521 162.06C548.521 131.43 537.191 115.9 514.841 115.9C499.071 115.9 487.971 123.2 481.751 137.62V117.62H436.061V119.78L449.671 131.14C450.701 131.93 451.031 132.42 451.131 132.65C451.221 132.85 451.421 133.5 451.421 135.33V212.19C451.421 213.61 451.261 214.3 451.121 214.63C451.021 214.87 450.701 215.39 449.701 216.15L436.061 225.97V228.07H497.441V225.97L483.841 216.18C482.581 215.19 482.191 214.63 482.071 214.39C481.951 214.16 481.751 213.56 481.751 212.19V145.98C486.861 137.45 493.161 133.31 501.001 133.31C507.191 133.31 511.481 135.98 514.101 141.46C516.811 147.14 518.191 156.14 518.191 168.21C518.191 171.99 518.081 180.33 517.861 192.99C517.531 212.08 517.531 212.33 517.531 212.41C517.531 213.84 516.791 215.07 515.241 216.17L502.281 225.99V228.07H563.661V225.97L550.051 216.18C548.891 215.28 548.521 214.75 548.401 214.51V214.5Z" fill="#FE6622"/>
<path d="M658.36 190.06C651.82 204.35 642.42 211.3 629.64 211.3C620.97 211.3 613.74 207.6 608.14 200.31C602.47 192.92 599.6 181.18 599.6 165.4C599.6 151.15 601.82 140.13 606.2 132.64C610.53 125.25 616.73 121.66 625.17 121.66H627.46C628.66 121.66 629.17 121.9 629.36 122.04C629.64 122.24 630.1 122.73 630.68 123.79L645.89 159.17H647.86L660.56 122.47L659.52 122.1C647.83 117.98 635.98 115.89 624.29 115.89C618.57 115.89 613.02 116.52 607.8 117.75C602.56 118.99 597.41 121.1 592.51 124.02C587.6 126.95 583.28 130.64 579.7 134.99C576.11 139.35 573.2 144.93 571.06 151.58C568.93 158.2 567.85 165.71 567.85 173.91C567.85 183.13 569.23 191.49 571.95 198.76C574.68 206.07 578.46 212.02 583.17 216.43C587.87 220.82 593.15 224.18 598.89 226.41C604.62 228.64 610.79 229.77 617.22 229.77C629.44 229.77 639.36 226.24 646.69 219.28C653.98 212.36 658.77 202.74 660.9 190.7L661.13 189.41H658.65L658.35 190.06H658.36Z" fill="#FE6622"/>
<path d="M765.749 188.14C758.909 203.87 747.909 211.51 732.139 211.51C723.099 211.51 715.609 207.88 709.869 200.72C704.069 193.48 701.129 182.83 701.129 169.07V166.72H767.989L768.109 165.75C768.399 163.41 768.549 161.48 768.549 160.01C768.549 152.34 767.239 145.5 764.639 139.68C762.029 133.82 758.429 129.14 753.939 125.77C749.499 122.44 744.559 119.93 739.269 118.32C733.989 116.71 728.289 115.9 722.329 115.9C717.099 115.9 711.989 116.55 707.119 117.82C702.229 119.1 697.469 121.24 692.959 124.16C688.439 127.09 684.469 130.77 681.139 135.09C677.799 139.42 675.109 144.96 673.109 151.56C671.129 158.14 670.119 165.59 670.119 173.7C670.119 182.99 671.539 191.39 674.329 198.67C677.139 205.99 681.009 211.95 685.829 216.39C690.639 220.82 696.089 224.19 702.039 226.42C707.989 228.65 714.439 229.78 721.219 229.78C733.849 229.78 744.319 226.32 752.339 219.49C760.339 212.67 765.709 202.34 768.279 188.78L768.529 187.47H766.019L765.729 188.14H765.749ZM721.899 121.66C727.659 121.66 731.839 124.42 734.679 130.1C737.599 135.96 739.079 145.15 739.079 157.42C739.079 158.58 739.039 159.62 738.969 160.52H701.159C701.739 147.8 703.819 138.03 707.359 131.47C710.919 124.86 715.679 121.65 721.899 121.65V121.66Z" fill="#FE6622"/>
<path d="M842.13 117.62V119.58L855.69 140.74C856.7 142.41 856.88 143.19 856.89 143.51C856.91 143.85 856.82 144.74 856.04 146.88L835.86 197.57L812.15 134.94C811.55 133.31 811.54 132.64 811.56 132.42C811.59 132.19 811.75 131.68 812.59 130.77L822.68 119.68V117.61H770.34V119.58L776.05 128.34C777.97 131.51 779.3 134 780 135.72L819.92 236.63C814.68 248.56 810.06 257.2 806.16 262.32C805.01 263.94 804.46 264.01 804.46 264.01C803.93 264.01 803.19 263.4 802.4 262.29L785.07 239.98H783.19L774.85 277.52L775.68 277.89C779.08 279.38 782.6 280.14 786.15 280.14C791.86 280.14 796.94 278.74 801.24 275.97C805.49 273.24 809.64 268.77 813.55 262.7C819.44 253.56 824.53 243.66 828.68 233.29L862.12 148.35C863.39 145.2 865.01 142.15 866.91 139.29L880.5 119.6V117.62H842.11H842.13Z" fill="#FE6622"/>
<path d="M197.48 150.44L191.78 145.64V144.06C191.78 103.43 159.7 69.6897 119.3 68.5097H118.15L125.75 59.9297C136.49 47.8097 135.37 30.5497 125.94 17.3797C118.02 6.31968 94.3098 -5.45032 70.0298 4.14968C56.7498 9.38968 44.9198 20.3597 31.6498 42.9297C21.5698 60.0997 0.769786 50.2597 0.769786 50.2597C0.769786 50.2597 0.0397863 64.8297 9.97979 74.6497C22.7598 87.2797 50.9798 99.6797 86.3698 60.1897C92.0598 53.8397 99.8298 53.8797 106.42 60.1897L114.23 68.5497C74.3298 70.0597 42.4398 102.85 42.4398 143.12V145.64L36.7398 150.44C29.0598 156.92 24.6198 166.46 24.6198 176.51C24.6198 186.56 29.4498 196.91 37.7198 203.37L42.4398 207.05V235.5L84.1798 269.47C103.36 285.07 130.86 285.07 150.03 269.47L191.78 235.5V207.06L196.49 203.37C204.77 196.91 209.6 187 209.6 176.51C209.6 166.02 205.16 156.92 197.48 150.44ZM176.71 207.67L140.11 237.31C126.7 248.17 107.52 248.17 94.1098 237.31L57.5098 207.67C47.9798 199.95 42.4398 188.34 42.4398 176.07C42.4398 169.94 43.8298 163.97 46.3998 158.57C48.9798 153.17 52.7498 148.34 57.5098 144.48L94.1098 114.84C107.52 103.99 126.69 103.99 140.1 114.84L176.71 144.48C186.24 152.2 191.78 163.81 191.78 176.07C191.78 188.33 186.24 199.95 176.71 207.67Z" fill="#FE6622"/>
<path d="M67.0897 153.38C62.1697 153.38 58.1797 157.37 58.1797 162.29V189.87C58.1797 194.79 62.1697 198.78 67.0897 198.78C72.0097 198.78 75.9997 194.79 75.9997 189.87V162.29C75.9997 157.37 72.0097 153.38 67.0897 153.38Z" fill="#FE6622"/>
<path d="M100.209 129.51C95.2888 129.51 91.2988 133.5 91.2988 138.42V213.73C91.2988 218.65 95.2888 222.64 100.209 222.64C105.129 222.64 109.119 218.65 109.119 213.73V138.42C109.119 133.5 105.129 129.51 100.209 129.51Z" fill="#FE6622"/>
<path d="M176.041 162.29C176.041 157.369 172.052 153.38 167.131 153.38C162.21 153.38 158.221 157.369 158.221 162.29V189.88C158.221 194.801 162.21 198.79 167.131 198.79C172.052 198.79 176.041 194.801 176.041 189.88V162.29Z" fill="#FE6622"/>
<path d="M142.91 138.42C142.91 133.499 138.921 129.51 134 129.51C129.079 129.51 125.09 133.499 125.09 138.42V213.73C125.09 218.651 129.079 222.64 134 222.64C138.921 222.64 142.91 218.651 142.91 213.73V138.42Z" fill="#FE6622"/>
</g>
<defs>
<clipPath id="clip0_7285_6563">
<rect width="879.76" height="280.56" fill="white" transform="translate(0.759766 0.609863)"/>
</clipPath>
</defs>
</svg>
